<?xml version="1.0" encoding="UTF-8"?>
<svg version="1.1" xmlns="http://www.w3.org/2000/svg" width="2000" height="2000">
<path d="M0 0 C660 0 1320 0 2000 0 C2000 660 2000 1320 2000 2000 C1340 2000 680 2000 0 2000 C0 1340 0 680 0 0 Z " fill="#00000000 " transform="translate(0,0)"/>
<path d="M0 0 C498.63 0 997.26 0 1511 0 C1507.31229456 4.91694059 1503.62095452 9.80512451 1499.8125 14.625 C1498.84758364 15.84890109 1497.88274198 17.07286108 1496.91796875 18.296875 C1496.189729 19.22016602 1496.189729 19.22016602 1495.44677734 20.16210938 C1494.06082646 21.92273007 1492.67981036 23.68707967 1491.30078125 25.453125 C1485.88984734 32.37682504 1480.39489718 39.22479645 1474.84082031 46.03417969 C1469.47486814 52.62299573 1464.22838345 59.30185136 1459 66 C1452.693822 74.07892496 1446.31876609 82.09211903 1439.84082031 90.03417969 C1434.47486814 96.62299573 1429.22838345 103.30185136 1424 110 C1416.11861741 120.09693963 1408.13951046 130.10932986 1400 140 C1399.299918 141.01453235 1398.59983599 142.02906471 1397.87853938 143.07434046 C1395.64868897 145.72567987 1395.11186341 145.97622648 1391.49359435 146.74519098 C1390.11499995 146.77351547 1388.73548863 146.76894175 1387.35694408 146.73828697 C1386.5914067 146.74521004 1385.82586932 146.7521331 1385.03713384 146.75926596 C1382.46230192 146.77519554 1379.88970469 146.74819887 1377.31498718 146.7215271 C1375.45450637 146.72414279 1373.59402771 146.72939486 1371.73356086 146.7370621 C1366.61386741 146.75050486 1361.49492432 146.72644277 1356.37532651 146.69639373 C1350.85729872 146.67052839 1345.33931463 146.67924797 1339.82124329 146.68380737 C1330.25845468 146.68695637 1320.69591134 146.66810134 1311.13318443 146.63438034 C1297.30705989 146.58565702 1283.48105417 146.56999564 1269.65485308 146.56245239 C1247.22385334 146.54931449 1224.79298258 146.50941965 1202.36206055 146.45263672 C1180.57007527 146.39753488 1158.77812496 146.35503091 1136.98608398 146.32958984 C1135.97858269 146.32840611 1135.97858269 146.32840611 1134.95072783 146.32719846 C1128.20559623 146.31928737 1121.46046435 146.31163248 1114.71533223 146.3041653 C1058.14346295 146.24151357 1001.57173839 146.13563117 945 146 C945.00626539 147.79222765 945.00626539 147.79222765 945.01265734 149.62066191 C945.19604459 202.28623153 945.36574612 254.95182913 945.46577454 307.61763 C945.46729316 308.41515645 945.46881179 309.21268289 945.47037644 310.03437681 C945.5032996 327.36741312 945.53377143 344.70045294 945.56171862 362.03349797 C945.57543914 370.53380736 945.58970126 379.03411581 945.60424805 387.53442383 C945.6056864 388.38029977 945.60712475 389.22617571 945.60860668 390.09768425 C945.6554688 417.5074767 945.73808344 444.91701945 945.83926943 472.32666068 C945.94307548 500.49724851 946.01075081 528.66769819 946.03306489 556.83847405 C946.03623452 560.81878237 946.03981652 564.79909023 946.04364967 568.77939796 C946.04439133 569.56276779 946.04513298 570.34613761 946.04589711 571.15324591 C946.05888839 583.75569703 946.1098857 596.35772058 946.17515237 608.95999744 C946.23997913 621.63433729 946.26463136 634.30825394 946.24851515 646.98275372 C946.2408928 653.8484504 946.25085765 660.71300354 946.31126022 667.57847023 C946.36485112 673.86693638 946.36745912 680.15330853 946.32988784 686.44187174 C946.32524564 688.71400102 946.33915431 690.98626174 946.37371501 693.2581329 C946.65453121 712.86112609 946.65453121 712.86112609 939.63143635 720.66863728 C937.80655519 722.5137435 935.91795605 724.24825483 934 726 C932.82302187 727.43550484 931.67077746 728.89278967 930.57421875 730.390625 C930.0951709 731.02830811 929.61612305 731.66599121 929.12255859 732.32299805 C928.64898926 732.95890869 928.17541992 733.59481934 927.6875 734.25 C922.65491602 740.91927708 917.43438394 747.40128223 912.09716797 753.82836914 C906.60184521 760.4532775 901.28702275 767.20855581 896 774 C889.69669016 782.0811071 883.31870728 790.09219114 876.84082031 798.03417969 C871.47486814 804.62299573 866.22838345 811.30185136 861 818 C854.693822 826.07892496 848.31876609 834.09211903 841.84082031 842.03417969 C836.47486814 848.62299573 831.22838345 855.30185136 826 862 C820.05915662 869.61089013 814.07680773 877.18445073 808 884.6875 C807.44779785 885.37118652 806.8955957 886.05487305 806.32666016 886.75927734 C805.54621338 887.71954834 805.54621338 887.71954834 804.75 888.69921875 C804.29109375 889.26471436 803.8321875 889.83020996 803.359375 890.4128418 C801.98720367 892.01494054 800.49157208 893.50842792 799 895 C798.67 663.67 798.34 432.34 798 194 C791.32461201 201.34292679 784.68818021 208.67106121 778.25390625 216.21875 C772.67243614 222.76251142 767.03199262 229.22308967 761.22265625 235.56640625 C757.13950243 240.037065 753.18157621 244.61141889 749.25390625 249.21875 C748.2319362 250.41680775 747.20979569 251.6147201 746.1875 252.8125 C745.41176636 253.72153076 745.41176636 253.72153076 744.62036133 254.64892578 C741.4152347 258.39032262 738.14806271 262.06098478 734.8125 265.6875 C731.64169258 269.14015696 728.61964969 272.65530966 725.6875 276.3125 C721.61251555 281.36836567 717.24768006 286.08187223 712.79980469 290.80566406 C708.76084255 295.11845414 705.01067423 299.59820511 701.31640625 304.2109375 C697.64013503 308.63734163 693.69573628 312.80801112 689.7734375 317.015625 C685.46894486 321.63353761 681.35687595 326.40761607 677.26171875 331.2109375 C676.23716908 332.41162041 675.21242354 333.61213621 674.1875 334.8125 C673.67018311 335.41868164 673.15286621 336.02486328 672.61987305 336.64941406 C669.41497771 340.3907082 666.14790722 344.06115383 662.8125 347.6875 C659.64169258 351.14015696 656.61964969 354.65530966 653.6875 358.3125 C649.61186956 363.36916714 645.2463704 368.08348303 640.79760742 372.80786133 C637.55466358 376.27044112 634.46577823 379.79277721 631.5 383.5 C628.01437264 387.8570342 624.32206333 391.94121533 620.5 396 C615.87379473 400.91306055 611.52729122 405.95121959 607.30859375 411.22265625 C604.16198293 415.00817282 600.80312334 418.57505162 597.43896484 422.16650391 C594.34205297 425.49172323 591.40371008 428.88729071 588.5625 432.4375 C584.53553256 437.45841948 580.20785297 442.12421817 575.79931641 446.80615234 C571.76055464 451.11880851 568.01052798 455.59838771 564.31640625 460.2109375 C560.64013503 464.63734163 556.69573628 468.80801112 552.7734375 473.015625 C548.46894486 477.63353761 544.35687595 482.40761607 540.26171875 487.2109375 C539.23716908 488.41162041 538.21242354 489.61213621 537.1875 490.8125 C536.67018311 491.41868164 536.15286621 492.02486328 535.61987305 492.64941406 C532.41497771 496.3907082 529.14790722 500.06115383 525.8125 503.6875 C522.64169258 507.14015696 519.61964969 510.65530966 516.6875 514.3125 C512.61186956 519.36916714 508.2463704 524.08348303 503.79760742 528.80786133 C500.55466358 532.27044112 497.46577823 535.79277721 494.5 539.5 C491.01437264 543.8570342 487.32206333 547.94121533 483.5 552 C478.87379473 556.91306055 474.52729122 561.95121959 470.30859375 567.22265625 C467.16198293 571.00817282 463.80312334 574.57505162 460.43896484 578.16650391 C457.34205297 581.49172323 454.40371008 584.88729071 451.5625 588.4375 C447.53553256 593.45841948 443.20785297 598.12421817 438.79931641 602.80615234 C434.76055464 607.11880851 431.01052798 611.59838771 427.31640625 616.2109375 C423.64013503 620.63734163 419.69573628 624.80801112 415.7734375 629.015625 C411.46894486 633.63353761 407.35687595 638.40761607 403.26171875 643.2109375 C402.23716908 644.41162041 401.21242354 645.61213621 400.1875 646.8125 C399.67018311 647.41868164 399.15286621 648.02486328 398.61987305 648.64941406 C395.41497771 652.3907082 392.14790722 656.06115383 388.8125 659.6875 C385.64169258 663.14015696 382.61964969 666.65530966 379.6875 670.3125 C375.61186956 675.36916714 371.2463704 680.08348303 366.79760742 684.80786133 C363.55466358 688.27044112 360.46577823 691.79277721 357.5 695.5 C354.01437264 699.8570342 350.32206333 703.94121533 346.5 708 C341.87379473 712.91306055 337.52729122 717.95121959 333.30859375 723.22265625 C330.16960203 726.99900669 326.81976787 730.55795067 323.46313477 734.14013672 C319.34808458 738.55767651 315.51296372 743.13854538 311.7421875 747.85546875 C310 750 310 750 308 752 C465.41 752.33 622.82 752.66 785 753 C785 801.18 785 849.36 785 899 C521 899 257 899 -15 899 C-15 893.37669095 -15 893.37669095 -12.18359375 890.51171875 C-11.58772461 889.89200195 -10.99185547 889.27228516 -10.37792969 888.63378906 C-9.73758789 887.99151367 -9.09724609 887.34923828 -8.4375 886.6875 C-7.13852452 885.34321895 -5.84033749 883.99817553 -4.54296875 882.65234375 C-3.92212402 882.01538574 -3.3012793 881.37842773 -2.66162109 880.72216797 C-0.79228466 878.78471584 0.9962601 876.79249126 2.75 874.75 C5.4472508 871.61682988 8.21313891 868.55386574 11 865.5 C13.84524228 862.38092989 16.6719958 859.25244609 19.4375 856.0625 C22.3988351 852.6531142 25.44152486 849.3220569 28.5 846 C32.14414329 842.04137814 35.73913717 838.0482324 39.265625 833.984375 C42.79500714 829.94625309 46.40634226 825.98085319 50 822 C51.50028679 820.33359149 53.00028872 818.66692647 54.5 817 C56.7717129 814.47499507 59.04435414 811.95086696 61.3203125 809.4296875 C64.69912708 805.68435744 68.06895965 801.93481793 71.375 798.125 C74.82716078 794.15902924 78.38750881 790.29482354 81.94824219 786.42675781 C85.10697965 782.9897558 88.20638336 779.50978679 91.265625 775.984375 C94.03012709 772.82138612 96.8488691 769.70769447 99.6640625 766.58984375 C101.24624621 764.83568355 102.8242535 763.07774893 104.3984375 761.31640625 C105.56246094 760.01509766 105.56246094 760.01509766 106.75 758.6875 C107.79414063 757.51767578 107.79414063 757.51767578 108.859375 756.32421875 C111.17372249 753.81137795 113.58262206 751.41378065 116 749 C122.87955514 741.84046297 129.48564653 734.53169672 135.69140625 726.77734375 C138.83801707 722.99182718 142.19687666 719.42494838 145.56103516 715.83349609 C148.65794703 712.50827677 151.59628992 709.11270929 154.4375 705.5625 C158.46446744 700.54158052 162.79214703 695.87578183 167.20068359 691.19384766 C171.23944536 686.88119149 174.98947202 682.40161229 178.68359375 677.7890625 C182.35986497 673.36265837 186.30426372 669.19198888 190.2265625 664.984375 C194.53105514 660.36646239 198.64312405 655.59238393 202.73828125 650.7890625 C203.76283092 649.58837959 204.78757646 648.38786379 205.8125 647.1875 C206.32981689 646.58131836 206.84713379 645.97513672 207.38012695 645.35058594 C210.58502229 641.6092918 213.85209278 637.93884617 217.1875 634.3125 C220.35830742 630.85984304 223.38035031 627.34469034 226.3125 623.6875 C230.38813044 618.63083286 234.7536296 613.91651697 239.20239258 609.19213867 C242.44533642 605.72955888 245.53422177 602.20722279 248.5 598.5 C251.98562736 594.1429658 255.67793667 590.05878467 259.5 586 C264.12620527 581.08693945 268.47270878 576.04878041 272.69140625 570.77734375 C275.83801707 566.99182718 279.19687666 563.42494838 282.56103516 559.83349609 C285.65794703 556.50827677 288.59628992 553.11270929 291.4375 549.5625 C295.46446744 544.54158052 299.79214703 539.87578183 304.20068359 535.19384766 C308.23944536 530.88119149 311.98947202 526.40161229 315.68359375 521.7890625 C319.35986497 517.36265837 323.30426372 513.19198888 327.2265625 508.984375 C331.53105514 504.36646239 335.64312405 499.59238393 339.73828125 494.7890625 C340.76283092 493.58837959 341.78757646 492.38786379 342.8125 491.1875 C343.32981689 490.58131836 343.84713379 489.97513672 344.38012695 489.35058594 C347.58502229 485.6092918 350.85209278 481.93884617 354.1875 478.3125 C357.35830742 474.85984304 360.38035031 471.34469034 363.3125 467.6875 C367.38813044 462.63083286 371.7536296 457.91651697 376.20239258 453.19213867 C379.44533642 449.72955888 382.53422177 446.20722279 385.5 442.5 C388.98562736 438.1429658 392.67793667 434.05878467 396.5 430 C401.12620527 425.08693945 405.47270878 420.04878041 409.69140625 414.77734375 C412.83801707 410.99182718 416.19687666 407.42494838 419.56103516 403.83349609 C422.65794703 400.50827677 425.59628992 397.11270929 428.4375 393.5625 C432.46446744 388.54158052 436.79214703 383.87578183 441.20068359 379.19384766 C445.23944536 374.88119149 448.98947202 370.40161229 452.68359375 365.7890625 C456.35986497 361.36265837 460.30426372 357.19198888 464.2265625 352.984375 C468.53105514 348.36646239 472.64312405 343.59238393 476.73828125 338.7890625 C477.76283092 337.58837959 478.78757646 336.38786379 479.8125 335.1875 C480.32981689 334.58131836 480.84713379 333.97513672 481.38012695 333.35058594 C484.58502229 329.6092918 487.85209278 325.93884617 491.1875 322.3125 C494.35830742 318.85984304 497.38035031 315.34469034 500.3125 311.6875 C504.38813044 306.63083286 508.7536296 301.91651697 513.20239258 297.19213867 C516.44533642 293.72955888 519.53422177 290.20722279 522.5 286.5 C525.98562736 282.1429658 529.67793667 278.05878467 533.5 274 C538.12620527 269.08693945 542.47270878 264.04878041 546.69140625 258.77734375 C549.83801707 254.99182718 553.19687666 251.42494838 556.56103516 247.83349609 C559.65794703 244.50827677 562.59628992 241.11270929 565.4375 237.5625 C569.46446744 232.54158052 573.79214703 227.87578183 578.20068359 223.19384766 C582.23944536 218.88119149 585.98947202 214.40161229 589.68359375 209.7890625 C593.35986497 205.36265837 597.30426372 201.19198888 601.2265625 196.984375 C605.53105514 192.36646239 609.64312405 187.59238393 613.73828125 182.7890625 C614.76283092 181.58837959 615.78757646 180.38786379 616.8125 179.1875 C617.32981689 178.58131836 617.84713379 177.97513672 618.38012695 177.35058594 C621.58502229 173.6092918 624.85209278 169.93884617 628.1875 166.3125 C632.34288217 161.78849521 636.25042061 157.10655285 640.08984375 152.3125 C641.65346476 150.41952733 643.25215822 148.71600664 645 147 C643.87810135 147.00244067 642.75620269 147.00488135 641.60030711 147.00739598 C592.15548277 147.11417409 542.71066055 147.20607524 493.26571655 147.22210693 C492.14281685 147.22247735 492.14281685 147.22247735 490.9972323 147.22285526 C474.72805012 147.22813292 458.45886852 147.23074184 442.1896855 147.23060168 C434.21125513 147.2305492 426.23282485 147.23108642 418.25439453 147.23193359 C417.46044581 147.23200786 416.66649709 147.23208213 415.84848931 147.23215864 C390.1153172 147.23484212 364.38238715 147.27646457 338.64929486 147.3382853 C312.2046522 147.40160974 285.76025787 147.42563965 259.31554449 147.40024378 C255.58022997 147.39667494 251.8449152 147.39355519 248.10960007 147.39070892 C247.37443824 147.39013485 246.63927642 147.38956077 245.88183696 147.3889693 C234.04870424 147.38088388 222.21603318 147.41420739 210.38301349 147.46302706 C198.48604378 147.51122648 186.58969081 147.51577527 174.69268484 147.47584674 C168.24648399 147.45604374 161.80182933 147.45583522 155.35577393 147.50784111 C149.45392982 147.55502826 143.55483767 147.54693259 137.65305857 147.49485454 C135.51829141 147.48577647 133.38332133 147.49699241 131.24879868 147.53055301 C114.47345773 147.77713751 114.47345773 147.77713751 109.57578349 143.37537718 C106.94985895 140.51196348 104.9638644 137.3498062 103 134 C101.95934773 132.60393659 100.90434086 131.21812524 99.8203125 129.85546875 C98.91914656 128.63482212 98.02068751 127.41217226 97.125 126.1875 C93.14261148 120.8104326 89.07471437 115.52165728 84.875 110.3125 C80.82927706 105.29434751 76.84460546 100.24122126 72.92700195 95.12207031 C64.76242377 84.45536592 56.4856302 73.87450954 48.17724609 63.31958008 C42.68799263 56.34095567 37.24540281 49.32601972 31.79833984 42.31445312 C29.44681162 39.28804971 27.09385253 36.26276121 24.74047852 33.23779297 C23.58552297 31.75282698 22.43105857 30.26747884 21.27709961 28.78173828 C18.22141929 24.84863317 15.15639885 20.92326744 12.078125 17.0078125 C11.11712891 15.78191406 11.11712891 15.78191406 10.13671875 14.53125 C8.90778643 12.96391603 7.67614786 11.39869902 6.44140625 9.8359375 C5.88839844 9.12953125 5.33539063 8.423125 4.765625 7.6953125 C4.27868164 7.07672363 3.79173828 6.45813477 3.29003906 5.82080078 C2 4 2 4 0 0 Z " fill="#FF0000" transform="translate(321,490)"/>
</svg>
